# xmcd
# 
# Track frame offsets:
#     179
#     18377
#     33668
#     43761
#     75885
#     86558
#     103647
#     117511
#     135047
#     146856
# 
# Disc length: 2047
# 
# Revision: 1
# Processed by: cddbd v1.5.2PL0 Copyright (c) Steve Scherf et al.
# Submitted via: fre:ac v1.0.17
# 
DISCID=7a07fd0a
DTITLE=Various Artist - At San Quentin
DYEAR=1969
DGENRE=Country
TTITLE0=Johnny Cash - Wanted Man
TTITLE1=Johnny Cash - Wreck Of The Old 97
TTITLE2=Johnny Cash - I Walk The Line
TTITLE3=Johnny Cash and June Carter - Darling Companion
TTITLE4=Johnny Cash - Starkville City Jail
TTITLE5=Johnny Cash - San Quentin
TTITLE6=Johnny Cash - San Quentin (Reprise)
TTITLE7=Johnny Cash - A Boy Named Sue
TTITLE8=Johnny Cash with The Carter Family - Peace In The Valley
TTITLE9=Johnny Cash - Folsom Prison Blues
EXTD=YEAR: 1969
EXTT0=
EXTT1=
EXTT2=
EXTT3=
EXTT4=
EXTT5=
EXTT6=
EXTT7=
EXTT8=
EXTT9=
PLAYORDER=
